<?xml version="1.0" encoding="UTF-8"?>
<svg id="Layer_1" data-name="Layer 1" xmlns="http://www.w3.org/2000/svg" viewBox="0 0 24 24">
  <defs>
    <style>
      .cls-1 {
        fill: #adadad;
      }
    </style>
  </defs>
  <path class="cls-1" d="M14.54,1.04v16.51c-.59.14-1.19.23-1.8.29-3.13.32-7.25.38-8.71-3.01-.64-1.47-.66-3.67-.14-5.18.67-1.94,2.27-3.05,4.27-3.37.96-.15,2.04-.15,2.99.09V1.04h3.39ZM11.15,9.26c-.54-.11-1.08-.18-1.64-.14-2.22.16-2.95,1.94-2.48,3.95s2.4,2.36,4.12,1.92v-5.73Z"/>
  <path class="cls-1" d="M20.48,6.98c0,.06-.02.11-.02.17-.1,3.43.08,6.87,0,10.3-.14,2.32-1.22,4.78-3.58,5.52-.96-.49-1.94-.94-2.89-1.45-.05-.02-.26-.12-.26-.17,1.69-.73,3.19-2.13,3.34-4.06V6.98s3.41,0,3.41,0Z"/>
  <polygon class="cls-1" points="20.48 1.04 20.48 4.42 17.1 4.42 17.07 4.39 17.07 1.04 20.48 1.04"/>
</svg>