<svg width="25" height="25" viewBox="0 0 25 25" fill="none" xmlns="http://www.w3.org/2000/svg">
<rect width="24.4277" height="24.4277" fill="white"/>
<g filter="url(#filter0_d_2211_102746)">
<path d="M5 19.75V4H10.6606C12.5552 4 14.1159 4.33 15.3428 4.99C16.5851 5.635 17.5014 6.55 18.0915 7.735C18.6972 8.905 19 10.285 19 11.875C19 13.45 18.6972 14.83 18.0915 16.015C17.5014 17.185 16.5851 18.1 15.3428 18.76C14.1159 19.42 12.5552 19.75 10.6606 19.75H5ZM8.49418 16.8475H10.4509C11.7088 16.8475 12.7027 16.6525 13.4326 16.2625C14.1625 15.8575 14.675 15.2875 14.97 14.5525C15.2806 13.8025 15.4359 12.91 15.4359 11.875C15.4359 10.825 15.2806 9.9325 14.97 9.1975C14.675 8.4475 14.1625 7.8775 13.4326 7.4875C12.7027 7.0825 11.7088 6.88 10.4509 6.88H8.49418V16.8475Z" fill="black"/>
<path d="M10.6602 3.91699C12.5636 3.91699 14.1393 4.24775 15.3818 4.91602H15.3809C16.6374 5.56836 17.5665 6.49534 18.165 7.69629C18.778 8.88036 19.083 10.2744 19.083 11.875C19.083 13.3617 18.8157 14.6795 18.2773 15.8262L18.166 16.0527C17.5675 17.2392 16.6382 18.1665 15.3818 18.834C14.1393 19.5023 12.5636 19.833 10.6602 19.833H4.91699V3.91699H10.6602ZM8.57812 16.7637H10.4512C11.5453 16.7636 12.4312 16.6156 13.1133 16.3232L13.3936 16.1885C14.1068 15.7923 14.6053 15.2371 14.8926 14.5215V14.5205C15.198 13.783 15.3525 12.9019 15.3525 11.875C15.3525 10.8331 15.1985 9.95239 14.8936 9.23047L14.8926 9.22852C14.605 8.49764 14.1063 7.94244 13.3936 7.56152L13.3926 7.56055C12.6799 7.16507 11.7014 6.96389 10.4512 6.96387H8.57812V16.7637Z" stroke="black" stroke-width="0.166986"/>
</g>
<defs>
<filter id="filter0_d_2211_102746" x="4.83301" y="3.83301" width="16.334" height="17.084" filterUnits="userSpaceOnUse" color-interpolation-filters="sRGB">
<feFlood flood-opacity="0" result="BackgroundImageFix"/>
<feColorMatrix in="SourceAlpha" type="matrix" values="0 0 0 0 0 0 0 0 0 0 0 0 0 0 0 0 0 0 127 0" result="hardAlpha"/>
<feOffset dx="2" dy="1"/>
<feComposite in2="hardAlpha" operator="out"/>
<feColorMatrix type="matrix" values="0 0 0 0 0.956731 0 0 0 0 0.956731 0 0 0 0 0.956731 0 0 0 1 0"/>
<feBlend mode="normal" in2="BackgroundImageFix" result="effect1_dropShadow_2211_102746"/>
<feBlend mode="normal" in="SourceGraphic" in2="effect1_dropShadow_2211_102746" result="shape"/>
</filter>
</defs>
</svg>
